<svg xmlns="http://www.w3.org/2000/svg" xmlns:xlink="http://www.w3.org/1999/xlink" version="1.1" width="256" height="256" viewBox="0 0 256 256" xml:space="preserve">

<defs>
</defs>
<g style="stroke: none; stroke-width: 0; stroke-dasharray: none; stroke-linecap: butt; stroke-linejoin: miter; stroke-miterlimit: 10; fill: none; fill-rule: nonzero; opacity: 1;" transform="translate(1.4065934065934016 1.4065934065934016) scale(2.81 2.81)" >
	<path d="M 74.893 30.444 H 51.164 c -2.209 0 -4 -1.791 -4 -4 s 1.791 -4 4 -4 h 23.729 c 2.209 0 4 1.791 4 4 S 77.102 30.444 74.893 30.444 z" style="stroke: none; stroke-width: 1; stroke-dasharray: none; stroke-linecap: butt; stroke-linejoin: miter; stroke-miterlimit: 10; fill: rgb(255,255,255); fill-rule: nonzero; opacity: 1;" transform=" matrix(1 0 0 1 0 0) " stroke-linecap="round" />
	<path d="M 74.893 90 H 51.164 c -1.499 0 -2.873 -0.839 -3.558 -2.172 c -0.686 -1.334 -0.567 -2.939 0.306 -4.158 l 19.193 -26.786 H 51.164 c -2.209 0 -4 -1.791 -4 -4 s 1.791 -4 4 -4 h 23.729 c 1.499 0 2.873 0.839 3.558 2.172 c 0.686 1.334 0.567 2.939 -0.306 4.158 L 58.951 82 h 15.941 c 2.209 0 4 1.791 4 4 S 77.102 90 74.893 90 z" style="stroke: none; stroke-width: 1; stroke-dasharray: none; stroke-linecap: butt; stroke-linejoin: miter; stroke-miterlimit: 10; fill: rgb(255,255,255); fill-rule: nonzero; opacity: 1;" transform=" matrix(1 0 0 1 0 0) " stroke-linecap="round" />
	<path d="M 28.051 90 c -2.209 0 -4 -1.791 -4 -4 V 4 c 0 -2.209 1.791 -4 4 -4 s 4 1.791 4 4 v 82 C 32.051 88.209 30.26 90 28.051 90 z" style="stroke: none; stroke-width: 1; stroke-dasharray: none; stroke-linecap: butt; stroke-linejoin: miter; stroke-miterlimit: 10; fill: rgb(255,255,255); fill-rule: nonzero; opacity: 1;" transform=" matrix(1 0 0 1 0 0) " stroke-linecap="round" />
	<path d="M 28.051 90 c -1.024 0 -2.047 -0.391 -2.829 -1.172 L 12.279 75.885 c -1.562 -1.562 -1.562 -4.095 0 -5.656 c 1.563 -1.563 4.095 -1.563 5.657 0 l 10.115 10.114 l 10.116 -10.114 c 1.563 -1.563 4.095 -1.563 5.657 0 c 1.562 1.562 1.562 4.095 0 5.656 L 30.879 88.828 C 30.098 89.609 29.074 90 28.051 90 z" style="stroke: none; stroke-width: 1; stroke-dasharray: none; stroke-linecap: butt; stroke-linejoin: miter; stroke-miterlimit: 10; fill: rgb(255,255,255); fill-rule: nonzero; opacity: 1;" transform=" matrix(1 0 0 1 0 0) " stroke-linecap="round" />
	<path d="M 74.893 41.872 c -2.209 0 -4 -1.791 -4 -4 V 15.864 c 0 -4.336 -3.528 -7.864 -7.864 -7.864 s -7.864 3.528 -7.864 7.864 v 22.008 c 0 2.209 -1.791 4 -4 4 s -4 -1.791 -4 -4 V 15.864 C 47.164 7.117 54.28 0 63.028 0 s 15.864 7.117 15.864 15.864 v 22.008 C 78.893 40.081 77.102 41.872 74.893 41.872 z" style="stroke: none; stroke-width: 1; stroke-dasharray: none; stroke-linecap: butt; stroke-linejoin: miter; stroke-miterlimit: 10; fill: rgb(255,255,255); fill-rule: nonzero; opacity: 1;" transform=" matrix(1 0 0 1 0 0) " stroke-linecap="round" />
</g>
</svg>